<svg width="15" height="15" viewBox="0 0 15 15" fill="none" xmlns="http://www.w3.org/2000/svg">
<rect x="8.22656" width="6.77396" height="6.77396" rx="1.32752" fill="#B7B7B7"/>
<rect x="8.22656" y="8.22656" width="6.77396" height="6.77396" rx="1.32752" fill="#B7B7B7"/>
<rect width="6.77396" height="6.77396" rx="1.32752" fill="#B7B7B7"/>
<rect y="8.22656" width="6.77396" height="6.77396" rx="1.32752" fill="#B7B7B7"/>
<path fill-rule="evenodd" clip-rule="evenodd" d="M11.6099 8.70898C11.8771 8.70898 12.0937 8.92561 12.0937 9.19284L12.0937 14.0314C12.0937 14.2986 11.8771 14.5152 11.6099 14.5152C11.3427 14.5152 11.126 14.2986 11.126 14.0314L11.126 9.19284C11.126 8.92561 11.3427 8.70898 11.6099 8.70898Z" fill="white"/>
<path fill-rule="evenodd" clip-rule="evenodd" d="M14.5156 11.6138C14.5156 11.881 14.299 12.0977 14.0318 12.0977L9.19323 12.0977C8.926 12.0977 8.70937 11.881 8.70937 11.6138C8.70937 11.3466 8.926 11.1299 9.19323 11.1299L14.0318 11.1299C14.299 11.1299 14.5156 11.3466 14.5156 11.6138Z" fill="white"/>
</svg>
