<svg width="20" height="15" viewBox="0 0 20 15" fill="none" xmlns="http://www.w3.org/2000/svg">
<path fill-rule="evenodd" clip-rule="evenodd" d="M1.59062 0H17.579C18.4152 0 19.0993 0.684173 19.0993 1.52031C19.0993 2.35644 18.4152 3.04061 17.579 3.04061H1.59062C0.754486 3.04061 0.0703125 2.35644 0.0703125 1.52031C0.0703125 0.684173 0.754486 0 1.59062 0Z" fill="#B7B7B7"/>
<path fill-rule="evenodd" clip-rule="evenodd" d="M1.59062 5.98047H17.579C18.4152 5.98047 19.0993 6.66464 19.0993 7.50078C19.0993 8.33691 18.4152 9.02108 17.579 9.02108H1.59062C0.754486 9.02108 0.0703125 8.33691 0.0703125 7.50078C0.0703125 6.66464 0.754486 5.98047 1.59062 5.98047Z" fill="#B7B7B7"/>
<path fill-rule="evenodd" clip-rule="evenodd" d="M1.59062 11.959H17.579C18.4152 11.959 19.0993 12.6432 19.0993 13.4793C19.0993 14.3154 18.4152 14.9996 17.579 14.9996H1.59062C0.754486 14.9996 0.0703125 14.3154 0.0703125 13.4793C0.0703125 12.6432 0.754486 11.959 1.59062 11.959Z" fill="#B7B7B7"/>
</svg>
