<svg width="17" height="12" viewBox="0 0 17 12" fill="none" xmlns="http://www.w3.org/2000/svg">
<path d="M15.9639 2.92861C15.8388 2.73218 15.6246 2.5893 15.3924 2.5893L4.10702 2.0714L3.71417 0.53573C3.62487 0.214375 3.35707 0 3.01777 0L0.714201 0.000124558C0.321355 0.000124558 0 0.32148 0 0.714325C0 1.10717 0.321355 1.42853 0.714201 1.42853H2.46412L4.42841 9.07115L3.94637 11.0712C3.89281 11.2854 3.94637 11.5176 4.07143 11.6783C4.2143 11.8569 4.41074 11.9461 4.62495 11.9461H13.3747C13.7675 11.9461 14.0889 11.6247 14.0889 11.2319C14.0889 10.839 13.7675 10.5177 13.3747 10.5177H5.5535L5.74993 9.69621L12.8926 9.3569C13.1604 9.33909 13.3926 9.17829 13.4997 8.94623L15.9995 3.58925C16.1068 3.39282 16.0888 3.14284 15.9639 2.92859L15.9639 2.92861Z" fill="#B7B7B7"/>
</svg>
