<svg width="14" height="15" viewBox="0 0 14 15" fill="none" xmlns="http://www.w3.org/2000/svg">
<path fill-rule="evenodd" clip-rule="evenodd" d="M0 2.80497C0 1.77565 0.837917 0.940578 1.87497 0.937509V3.28594C1.87497 3.54839 2.0887 3.75003 2.35312 3.75003H10.7719C11.0363 3.75003 11.2501 3.54186 11.2501 3.28594V0.937509H11.2444C11.7414 0.935983 12.2187 1.13184 12.5713 1.48204C12.9239 1.83223 13.1231 2.30807 13.1251 2.80497V13.1325C13.1251 14.1637 12.2842 15 11.2444 15H1.88088C1.3839 15.0015 0.906608 14.8057 0.554014 14.4555C0.201419 14.1053 0.00220071 13.6294 0.000219685 13.1325L0 2.80497ZM2.8125 7.03125C2.8125 7.28258 3.02241 7.50003 3.28116 7.50003H9.84365C10.0967 7.50003 10.3123 7.29 10.3123 7.03125C10.3123 6.78003 10.1024 6.56258 9.84365 6.56258H3.28116C3.02808 6.56258 2.8125 6.7725 2.8125 7.03125ZM2.8125 10.7812C2.8125 11.0325 3.02241 11.25 3.28116 11.25H9.84365C10.0967 11.25 10.3123 11.04 10.3123 10.7812C10.3123 10.53 10.1024 10.3125 9.84365 10.3125H3.28116C3.02808 10.3125 2.8125 10.5225 2.8125 10.7812ZM9.84374 8.4375H3.28125C3.02239 8.4375 2.81258 8.64731 2.81258 8.90616C2.81258 9.16513 3.02239 9.37494 3.28125 9.37494H9.84374C10.1026 9.37494 10.3124 9.16513 10.3124 8.90616C10.3124 8.64731 10.1026 8.4375 9.84374 8.4375Z" fill="#B7B7B7"/>
</svg>
