<svg width="14" height="15" viewBox="0 0 14 15" fill="none" xmlns="http://www.w3.org/2000/svg">
<path d="M13.0678 6.13314L7.28412 0.221895C7.21438 0.151584 7.13141 0.0957768 7.04 0.0576923C6.94858 0.0196078 6.85053 0 6.7515 0C6.65248 0 6.55443 0.0196078 6.46301 0.0576923C6.3716 0.0957768 6.28863 0.151584 6.21889 0.221895L0.435178 6.14064C0.295226 6.28172 0.184696 6.4492 0.110006 6.63335C0.035315 6.8175 -0.00204776 7.01465 8.65414e-05 7.21336V13.4997C-0.000494699 13.8837 0.146197 14.2533 0.409954 14.5324C0.67371 14.8115 1.03445 14.9789 1.41788 15H3.75087V8.24858C3.75087 8.04963 3.82991 7.85882 3.97059 7.71814C4.11127 7.57746 4.30208 7.49842 4.50103 7.49842H9.00198C9.20093 7.49842 9.39174 7.57746 9.53242 7.71814C9.6731 7.85882 9.75214 8.04963 9.75214 8.24858V15H12.0851C12.4686 14.9789 12.8293 14.8115 13.0931 14.5324C13.3568 14.2533 13.5035 13.8837 13.5029 13.4997V7.21336C13.5035 6.81048 13.3475 6.42314 13.0678 6.13314Z" fill="#287DF3"/>
</svg>
